#!OML:ASF H:\Terrain\Patient Classification 1\Animal1\Tuesday\Animal1.ASF
:FULLY-SPECIFIED
:DEGREES
967
root 12.6586 16.4683 -14.4798 8.43436 -17.8747 1.05038
lowerback -1.70771 -3.04853 0.327548
upperback -6.70469 -3.98967 2.81627
thorax -5.81709 -1.93882 2.87709
lowerneck 4.39519 -4.66871 -7.9324
upperneck 24.4847 -5.37866 -6.40893
head 6.88777 -3.88666 -1.01722
rclavicle -2.64384e-014 2.06736e-014
rhumerus -46.5814 -8.24884 -68.4466
rradius 29.2075
rwrist -1.43472
rhand -17.5442 12.9678
rfingers 7.12502
rthumb 8.71025 -16.8325
lclavicle -2.64384e-014 2.06736e-014
lhumerus -45.2571 12.4801 76.7568
lradius 47.7998
lwrist -24.229
lhand 6.89674 45.6892
lfingers 7.12502
lthumb 32.1774 72.8594
rfemur -21.5359 18.0855 16.1093
rtibia 22.5538
rfoot -7.1915 -33.5827
rtoes 12.9992
lfemur 0.13382 -19.7244 -16.831
ltibia 4.86452
lfoot -25.6439 34.0561
ltoes 35.8967
968
root 12.579 16.4616 -14.4633 8.32302 -17.736 0.769858
lowerback -1.69545 -3.12931 0.479557
upperback -6.58222 -4.09322 2.88008
thorax -5.69549 -1.99781 2.85645
lowerneck 4.47534 -4.65695 -7.77031
upperneck 24.4635 -5.36204 -6.48848
head 6.85726 -3.86915 -1.065
rclavicle 2.67365e-014 -2.22639e-014
rhumerus -46.4021 -7.98817 -68.5517
rradius 29.3746
rwrist -1.26225
rhand -17.6497 13.0263
rfingers 7.12502
rthumb 8.60837 -16.7782
lclavicle 2.67365e-014 -2.22639e-014
lhumerus -45.0293 12.661 76.705
lradius 47.6088
lwrist -24.3879
lhand 7.43802 45.6586
lfingers 7.12502
lthumb 32.6925 72.7232
rfemur -21.125 18.0371 16.847
rtibia 22.5723
rfoot -7.11989 -33.5218
rtoes 13.1063
lfemur -0.0370596 -20.0564 -16.3796
ltibia 5.87455
lfoot -26.9021 33.9877
ltoes 36.6233
969
root 12.4996 16.4563 -14.4584 8.27872 -17.565 0.445749
lowerback -1.5506 -3.25085 0.620764
upperback -6.52499 -4.24655 2.98895
thorax -5.71341 -2.078 2.90264
lowerneck 4.37692 -4.60307 -7.55401
upperneck 24.5504 -5.25839 -6.60127
head 6.889 -3.81482 -1.13645
rclavicle 1.03368e-014 -5.56597e-015
rhumerus -46.2633 -7.68263 -68.6301
rradius 29.5581
rwrist -0.962973
rhand -17.678 14.3173
rfingers 7.12502
rthumb 8.58105 -15.4883
lclavicle 1.03368e-014 -5.56597e-015
lhumerus -44.8383 12.9357 76.6397
lradius 47.37
lwrist -24.2849
lhand 5.69462 45.2326
lfingers 7.12502
lthumb 31.0323 72.6279
rfemur -20.7994 17.7995 17.645
rtibia 22.525
rfoot -6.85496 -33.3911
rtoes 12.3769
lfemur -0.394567 -20.4028 -15.8212
ltibia 6.91365
lfoot -27.301 34.5008
ltoes 35.147
970
root 12.4196 16.4555 -14.4537 8.20289 -17.4285 0.371316
lowerback -1.38421 -3.35453 0.495538
upperback -6.55323 -4.38078 3.07208
thorax -5.81733 -2.1346 3.07587
lowerneck 4.5017 -4.55755 -7.54899
upperneck 24.6026 -5.20977 -6.60628
head 6.88477 -3.79375 -1.13462
rclavicle -2.69353e-014 3.18055e-015
rhumerus -46.2225 -7.30402 -68.6464
rradius 29.7974
rwrist -0.859401
rhand -17.7557 14.4483
rfingers 7.12502
rthumb 8.5061 -15.3604
lclavicle -2.69353e-014 3.18055e-015
lhumerus -44.8322 13.1549 76.6696
lradius 47.3155
lwrist -24.2551
lhand 5.73436 45.369
lfingers 7.12502
lthumb 31.0702 72.7571
rfemur -20.4727 17.4818 18.171
rtibia 22.3677
rfoot -6.59158 -33.2633
rtoes 11.5147
lfemur -0.877447 -20.7449 -15.5259
ltibia 8.11844
lfoot -27.3471 35.189
ltoes 32.995
971
root 12.3403 16.4535 -14.4399 8.06067 -17.3243 0.117116
lowerback -1.22744 -3.36028 0.576025
upperback -6.54102 -4.38032 3.14053
thorax -5.89506 -2.13526 3.1132
lowerneck 4.66479 -4.57009 -7.8749
upperneck 24.7616 -5.30101 -6.25857
head 6.93516 -3.84672 -0.974179
rclavicle 4.77083e-014 1.59028e-015
rhumerus -46.3441 -7.03624 -68.6515
rradius 30.1632
rwrist -0.969417
rhand -18.0956 12.9451
rfingers 7.12502
rthumb 8.17806 -16.8766
lclavicle 4.77083e-014 1.59028e-015
lhumerus -44.7687 13.1426 76.7894
lradius 47.1499
lwrist -24.3496
lhand 8.79156 46.4196
lfingers 7.12502
lthumb 33.9793 73.2079
rfemur -19.9776 17.3016 18.8894
rtibia 22.2219
rfoot -6.55491 -33.147
rtoes 11.4417
lfemur -1.03501 -21.0484 -15.0876
ltibia 9.07644
lfoot -27.8179 35.6266
ltoes 32.675
972
root 12.2638 16.4536 -14.4314 8.03855 -17.079 -0.12446
lowerback -1.20528 -3.42114 0.68345
upperback -6.50566 -4.45685 3.19192
thorax -5.87101 -2.17767 3.10938
lowerneck 4.46157 -4.57842 -8.09011
upperneck 25.1316 -5.33273 -5.94429
head 7.11192 -3.87654 -0.855499
rclavicle 2.98177e-016 -8.74653e-015
rhumerus -46.3465 -6.98017 -68.5978
rradius 30.5061
rwrist -0.978957
rhand -19.076 10.6294
rfingers 7.12502
rthumb 7.23176 -19.227
lclavicle 2.98177e-016 -8.74653e-015
lhumerus -44.5682 13.1815 76.9125
lradius 46.9373
lwrist -24.4404
lhand 8.32017 46.1865
lfingers 7.12502
lthumb 33.5314 73.0731
rfemur -19.5908 16.9198 19.5698
rtibia 22.0285
rfoot -6.63622 -32.941
rtoes 12.0478
lfemur -1.41886 -21.4724 -14.5116
ltibia 10.0236
lfoot -28.2317 35.9742
ltoes 32.8398
973
root 12.1896 16.4584 -14.4208 8.0251 -16.7697 -0.123048
lowerback -1.31341 -3.54941 0.607429
upperback -6.44587 -4.63427 3.17457
thorax -5.73294 -2.26437 3.12743
lowerneck 4.25237 -4.59118 -7.96685
upperneck 25.4083 -5.32537 -5.92001
head 7.23523 -3.87469 -0.880706
rclavicle -6.08281e-014 -1.03368e-014
rhumerus -46.1709 -6.99445 -68.5244
rradius 30.7302
rwrist -1.08038
rhand -19.2579 9.63163
rfingers 7.12502
rthumb 7.05618 -20.2308
lclavicle -6.08281e-014 -1.03368e-014
lhumerus -44.2624 13.3038 76.9701
lradius 46.7681
lwrist -24.657
lhand 6.38284 45.554
lfingers 7.12502
lthumb 31.688 72.822
rfemur -19.2256 16.5075 19.9594
rtibia 21.7219
rfoot -6.44232 -32.8348
rtoes 11.9803
lfemur -2.01924 -20.8913 -14.2009
ltibia 11.1715
lfoot -27.9589 35.4206
ltoes 32.2627
974
root 12.1158 16.4577 -14.4068 7.9571 -16.5893 -0.387016
lowerback -1.30613 -3.5896 0.721546
upperback -6.37126 -4.68325 3.24737
thorax -5.65903 -2.29337 3.13762
lowerneck 4.42007 -4.65577 -7.97866
upperneck 25.395 -5.44535 -5.86727
head 7.20558 -3.9272 -0.862535
rclavicle -2.8128e-014 -1.43125e-014
rhumerus -46.048 -6.97888 -68.3859
rradius 30.9493
rwrist -1.22446
rhand -18.9179 9.27537
rfingers 7.12502
rthumb 7.38443 -20.5758
lclavicle -2.8128e-014 -1.43125e-014
lhumerus -43.939 13.3477 77.113
lradius 46.5056
lwrist -24.9
lhand 7.32925 46.1547
lfingers 7.12502
lthumb 32.589 73.2407
rfemur -18.7497 16.5445 20.5912
rtibia 21.4543
rfoot -6.59877 -32.9431
rtoes 12.2767
lfemur -2.3409 -20.2443 -13.7227
ltibia 12.1513
lfoot -27.4474 35.182
ltoes 30.4706
975
root 12.042 16.4529 -14.396 7.94589 -16.4928 -0.902634
lowerback -1.22787 -3.58968 0.953399
upperback -6.33147 -4.6674 3.47897
thorax -5.66264 -2.29084 3.25342
lowerneck 4.62158 -4.7068 -8.09648
upperneck 25.4427 -5.53335 -5.8837
head 7.19415 -3.98199 -0.849184
rclavicle -6.08281e-014 3.18055e-015
rhumerus -45.9946 -6.79022 -68.1941
rradius 31.2127
rwrist -1.30793
rhand -19.1669 8.6851
rfingers 7.12502
rthumb 7.14408 -21.1743
lclavicle -6.08281e-014 3.18055e-015
lhumerus -43.7986 13.5405 77.3296
lradius 46.3907
lwrist -25.2113
lhand 8.6588 46.2759
lfingers 7.12502
lthumb 33.8532 73.0921
rfemur -18.3363 16.672 21.4793
rtibia 21.2702
rfoot -6.58338 -33.0508
rtoes 11.7162
lfemur -2.50127 -19.4268 -13.0049
ltibia 12.9202
lfoot -26.852 34.9158
ltoes 28.9397
